<!--?xml version="1.0" encoding="utf-8"?-->
<!-- Generator: Adobe Illustrator 18.1.1, SVG Export Plug-In . SVG Version: 6.00 Build 0)  -->

<svg version="1.1" id="_x31_0" xmlns="http://www.w3.org/2000/svg" xmlns:xlink="http://www.w3.org/1999/xlink" x="0px" y="0px" viewBox="0 0 512 512" style="enable-background:new 0 0 512 512;" xml:space="preserve">
<style type="text/css">
	.st0{fill:#374149;}
</style>
<g>
	<path class="st0" d="M287.844,164.961c13.679,0,24.878-11.117,24.878-24.878c0-13.68-11.199-24.879-24.878-24.879
		c-13.762,0-24.883,11.199-24.883,24.879C262.961,153.844,274.082,164.961,287.844,164.961z"></path>
	<path class="st0" d="M277.461,227.172l4.176-8.898l27.886,25.168h46.719c1.758,0,3.438-1.122,4.078-2.879l7.442-20.082
		c1.039-2.879-1.039-5.918-4.16-5.918h-46.961l-28.321-30.801c-10.078-11.039-24.476-17.359-39.519-17.359H182.32L156,213.043
		c-1.598,2.801-0.718,6.48,2.082,8.16l12.32,7.68c1.039,0.64,2.16,0.961,3.278,0.961c0.406,0,0.758-0.242,1.152-0.325
		c0.274-0.054,0.535-0.129,0.793-0.222c0.734-0.262,1.352-0.641,1.946-1.18c0.234-0.21,0.446-0.434,0.645-0.679
		c0.262-0.321,0.625-0.5,0.828-0.875l17.918-33.679h19.363l7.887,0.066l-24.93,53.691l-12.962,68.242h-51.519
		c-1.758,0-3.359,0.718-4.558,2c-0.321,0.32-0.562,0.558-0.719,0.878l-10.961,16.558c-2.801,4.242,0.238,9.844,5.282,9.844h88.558
		l9.93-41.738l7.91-32.714l47.281,105.25h33.199l-47.602-116.878L277.461,227.172z"></path>
	<path class="st0" d="M416.801,56.801C372.883,21.282,316.961,0,256,0C195.043,0,139.121,21.282,95.203,56.801
		C37.121,103.68,0,175.523,0,256c0,80.481,37.121,152.32,95.203,199.203C139.121,490.722,195.043,512,256,512
		c60.961,0,116.883-21.278,160.801-56.797C474.883,408.32,512,336.481,512,256C512,175.523,474.883,103.68,416.801,56.801z
		 M299.305,424.023l8.211-20.351l3.125-7.59h-0.062l0.062-0.161h-33.039l-12.718,28.161H163.282h-37.829l-27.648-0.118
		l28.438-26.523l4-3.762v-30.797h-6.398c-9.203,0-17.762-5.039-22-13.282c-0.375-0.695-0.664-1.414-0.969-2.133
		c-0.286-0.672-0.543-1.344-0.766-2.031c-0.473-1.45-0.805-2.922-1.004-4.406c-0.094-0.718-0.16-1.442-0.195-2.164
		c-0.066-1.488,0-2.973,0.199-4.446c0.094-0.71,0.222-1.414,0.378-2.113c0.329-1.477,0.797-2.922,1.395-4.332
		c0.281-0.657,0.59-1.297,0.926-1.938c0.367-0.688,0.718-1.379,1.152-2.039l10.961-16.558c0.719-1.122,1.758-2.398,3.039-3.598
		c3.359-3.68,8.082-6.164,13.282-7.122V111.121V91.282h27.199h197.121h27.282v19.922V393.68l-31.442,29.441
		c-0.558,0.321-1.121,0.641-1.68,0.962h-36.035L299.305,424.023z"></path>
</g>
</svg>
